<?xml version="1.0" encoding="UTF-8"?>
<svg width="145px" height="150px" viewBox="0 0 145 150" version="1.1" xmlns="http://www.w3.org/2000/svg" xmlns:xlink="http://www.w3.org/1999/xlink">
    <!-- Generator: Sketch 49.3 (51167) - http://www.bohemiancoding.com/sketch -->
    <title>Untitled</title>
    <desc>Created with Sketch.</desc>
    <defs>
        <linearGradient x1="0.0554264782%" y1="49.9406033%" x2="100.086148%" y2="49.9406033%" id="linearGradient-1">
            <stop stop-color="#F0776F" offset="3.21544%"></stop>
            <stop stop-color="#F0606F" offset="100%"></stop>
        </linearGradient>
        <linearGradient x1="0.0241211329%" y1="50.0302637%" x2="100.05757%" y2="50.0302637%" id="linearGradient-2">
            <stop stop-color="#6EB4E0" offset="0%"></stop>
            <stop stop-color="#1588E0" offset="100%"></stop>
        </linearGradient>
        <linearGradient x1="-0.0789849857%" y1="49.9408428%" x2="99.992502%" y2="49.9408428%" id="linearGradient-3">
            <stop stop-color="#F0776F" offset="3.21544%"></stop>
            <stop stop-color="#F0606F" offset="100%"></stop>
        </linearGradient>
    </defs>
    <g id="Page-1" stroke="none" stroke-width="1" fill="none" fill-rule="evenodd">
        <g id="zorro" fill-rule="nonzero">
            <path d="M131.7,87.4 C131.4,87.4 131.1,87.4 130.7,87.3 C126.4,86.8 123.3,82.9 123.8,78.6 L128.5,39.7 C128.8,37.2 127.3,34.8 125,34 L93.3,22.7 C89.2,21.2 87.1,16.8 88.5,12.7 C90,8.6 94.4,6.5 98.5,7.9 L130.2,19.2 C139.6,22.5 145.3,31.7 144.1,41.6 L139.4,80.5 C139,84.4 135.6,87.4 131.7,87.4 Z" id="Shape" fill="url(#linearGradient-1)"></path>
            <path d="M70.9,149.7 C67.4,149.7 63.9,148.8 60.6,147 L19.6,124.2 C13.7,120.9 9.7,115 8.9,108.3 L0.6,40.7 C-0.6,30.8 5.3,21.4 14.7,18.1 L65.4,0.8 C69.5,-0.6 74,1.6 75.4,5.7 C76.8,9.8 74.6,14.3 70.5,15.7 L19.8,33 C17.4,33.8 15.9,36.2 16.2,38.8 L24.5,106.4 C24.7,108.1 25.7,109.6 27.2,110.5 L68.2,133.3 C69.8,134.2 71.8,134.2 73.4,133.3 L117.8,109 C119.3,108.2 120.4,106.6 120.6,104.9 C121.1,100.6 125,97.5 129.3,98 C133.6,98.5 136.7,102.4 136.2,106.7 C135.4,113.4 131.3,119.4 125.4,122.7 L81,147 C77.9,148.8 74.4,149.7 70.9,149.7 Z" id="Shape" fill="url(#linearGradient-2)"></path>
            <path d="M106,88.7 L80.6,42.8 L80.5,42.7 C78.7,39.6 75.3,37.6 71.7,37.6 C68.1,37.6 64.7,39.6 62.9,42.7 L37.5,88.7 C35.6,92.2 36.8,96.5 40.3,98.4 C43.8,100.3 48.1,99.1 50,95.6 L54.9,86.7 L88.5,86.7 L93.4,95.6 C94.7,98 97.1,99.3 99.7,99.3 C100.9,99.3 102.1,99 103.1,98.4 C106.6,96.5 107.9,92.1 106,88.7 Z M62.8,72.4 L71.7,56.3 L80.6,72.4 L62.8,72.4 Z" id="Shape" fill="url(#linearGradient-3)"></path>
        </g>
    </g>
</svg>